<?xml version="1.0" encoding="UTF-8"?>
<svg width="24px" height="24px" viewBox="0 0 24 24" version="1.1" xmlns="http://www.w3.org/2000/svg" xmlns:xlink="http://www.w3.org/1999/xlink">
    <title>Icon Gavel</title>
    <defs>
        <path d="M0,0 L24,0 L24,24 L0,24 L0,0 Z" id="path-1"></path>
    </defs>
    <g id="Icon-Gavel" stroke="none" fill="none" xlink:href="#path-1" fill-rule="nonzero">
        <path d="M10.7630022,21.6 L10.1650576,21.6 L10.1650576,20.4 L1.7938337,20.4 L1.7938337,21.6 L1.19588913,21.6 C0.538150109,21.6 0,22.14 0,22.8 C0,23.46 0.538150109,24 1.19588913,24 L10.7630022,24 C11.4207412,24 11.9588913,23.46 11.9588913,22.8 C11.9588913,22.14 11.4207412,21.6 10.7630022,21.6 Z" id="Path" fill="#000000"></path>
        <path d="M10.733105,15.63 C11.0918717,15.27 11.0918717,14.7 10.733105,14.37 L6.00934288,9.63 C5.65057614,9.27 5.08252881,9.27 4.7536593,9.63 L3.58766739,10.8 L9.56711305,16.8 L10.733105,15.63 Z" id="Path" fill="#000000"></path>
        <path d="M17.9084397,7.17 C18.2672065,7.53 18.8352538,7.53 19.1641233,7.17 L20.3301152,6 L14.3506696,0 L13.1846777,1.17 C12.8259109,1.53 12.8259109,2.1 13.1846777,2.43 L17.9084397,7.17 Z" id="Path" fill="#000000"></path>
        <path d="M23.6188103,17.7 L15.5465587,9.6 L17.3403924,7.8 L12.5568359,3 L6.57739022,9 L11.3609467,13.8 L13.752725,11.4 L21.8249766,19.5 C22.3332295,20.01 23.1105575,20.01 23.6188103,19.5 C24.1270632,18.99 24.1270632,18.21 23.6188103,17.7 Z" id="Path" fill="#000000"></path>
    </g>
</svg>