<?xml version="1.0" encoding="UTF-8"?>
<svg width="24px" height="24px" viewBox="0 0 24 24" version="1.1" xmlns="http://www.w3.org/2000/svg" xmlns:xlink="http://www.w3.org/1999/xlink">
    <title>Icon Process</title>
    <defs>
        <path d="M0,0 L24,0 L24,24 L0,24 L0,0 Z" id="path-1"></path>
    </defs>
    <g id="Icon-Process" stroke="none" fill="none" xlink:href="#path-1" fill-rule="nonzero">
        <path d="M11.3439161,20.659876 C6.79368931,19.8780277 3.46142589,15.7661661 3.47724359,10.9539446 C3.48251616,10.3581982 3.54051442,9.76410354 3.65123836,9.17881848 L3.6776012,9.17881848 L4.34194486,10.3785703 C4.54230247,10.741414 4.98519824,10.865849 5.33318778,10.6571726 C5.68117731,10.4479455 5.80244639,9.98434251 5.60208878,9.62149881 L4.06249872,6.83933001 C3.96231991,6.66644242 3.80941542,6.53980501 3.62487552,6.48749826 C3.43506304,6.4351915 3.239978,6.46272137 3.0712558,6.5629301 L0.388572842,8.17948415 C0.0342562245,8.37329444 -0.102830562,8.83084091 0.0827638566,9.20139297 C0.267831018,9.57194504 0.705981478,9.71510037 1.06082535,9.52129008 C1.07875209,9.51137932 1.09667882,9.50091797 1.1140783,9.48935543 L2.2228995,8.81927836 C2.09424882,9.52294187 2.02834171,10.2376173 2.0272872,10.9539446 C2.01094223,16.5017643 5.84989951,21.2435093 11.0908328,22.1514445 L11.2121019,22.1514445 C11.6128171,22.1844803 11.9660792,21.8728422 11.9977146,21.4549387 C12.02935,21.0364847 11.7288136,20.6703374 11.3280984,20.6373015 L11.3439161,20.659876 Z" id="Path" fill="#000000"></path>
        <path d="M23.9998839,10.9851865 C23.9998839,9.61237583 23.7675627,8.24962651 23.3029203,6.9617781 C23.162447,6.56379716 22.7356244,6.36201189 22.3466214,6.51013681 C21.9630213,6.6588207 21.7685198,7.10207756 21.9143959,7.50005849 C23.7729656,12.6715748 21.2282379,18.4238526 16.2306306,20.3483587 C16.1928108,20.3623327 16.1549911,20.3757478 16.1225742,20.3891629 L16.1225742,20.3891629 L16.7979265,19.1667131 C17.0032337,18.7977981 16.8789688,18.3260342 16.5223828,18.1136287 C16.1657968,17.9017821 15.71196,18.0292254 15.5066529,18.3981403 L13.9452382,21.2304007 C13.7399311,21.5987567 13.864196,22.0682847 14.220782,22.2795724 C14.220782,22.2795724 14.220782,22.2795724 14.220782,22.2795724 L16.9600111,23.8972083 C17.3165971,24.1096139 17.7704339,23.9821706 17.975741,23.6132557 C18.1810481,23.2437818 18.0567833,22.7725768 17.7001973,22.5601713 L16.5385912,21.8799145 C21.0229308,20.2712219 24.0214952,15.8928727 23.9998839,10.9851865 Z" id="Path" fill="#000000"></path>
        <path d="M18.232343,3.95472878 C17.8189807,3.95472878 17.4872031,4.30861947 17.4872031,4.7459478 C17.4872031,5.1827007 17.8189807,5.53716682 18.232343,5.53716682 L21.3053656,5.53716682 C21.3379995,5.53889311 21.3651943,5.53889311 21.3923892,5.53716682 C21.5392416,5.53716682 21.6806551,5.49170769 21.7948736,5.40654375 L21.8492634,5.37086696 L21.8710193,5.35130228 L21.9199701,5.31159747 C22.0668225,5.16371144 22.1484072,4.96000851 22.1538462,4.7459478 L22.1538462,1.39117915 C22.1538462,0.953850823 21.8166295,0.599960135 21.4032672,0.599960135 C20.9899049,0.599960135 20.6581272,0.953850823 20.6581272,1.39117915 L20.6581272,2.83493808 C15.9425333,-1.41635364 8.86098402,-0.817904348 4.84157931,4.17109121 C4.82526237,4.1923822 4.80894544,4.21367318 4.79262851,4.2355396 C4.52611859,4.5698656 4.56419143,5.06934059 4.87965215,5.35130228 C5.19511288,5.63268853 5.66830396,5.59068199 5.93481388,5.25635599 C9.36680897,0.928531815 15.4584643,0.342166592 19.5757706,3.94264471 L18.232343,3.95472878 Z" id="Path" fill="#000000"></path>
    </g>
</svg>