<?xml version="1.0" encoding="UTF-8"?>
<svg width="23px" height="24px" viewBox="0 0 23 24" version="1.1" xmlns="http://www.w3.org/2000/svg" xmlns:xlink="http://www.w3.org/1999/xlink">
    <title>Group Copy 3</title>
    <g id="Symbols" stroke="none" stroke-width="1" fill="none" fill-rule="evenodd">
        <g id="Group-Copy-3" fill="#000000">
            <path d="M4.87674278,11.6846359 L4.87674278,24 L7.07262592,24 L7.07262592,14.9629999 C7.07262592,14.6140666 7.35348755,14.3313317 7.7001089,14.3313317 C8.04673026,14.3313317 8.32759188,14.6140666 8.32759188,14.9629999 L8.32759188,24 L10.8369092,24 L10.8369092,14.9629999 C10.8369092,14.6140666 11.1177709,14.3313317 11.4643922,14.3313317 C11.8110136,14.3313317 12.0918752,14.6140666 12.0918752,14.9629999 L12.0918752,24 L14.6011925,24 L14.6011925,14.9629999 C14.6011925,14.6140666 14.8820542,14.3313317 15.2286755,14.3313317 C15.5752969,14.3313317 15.8561585,14.6140666 15.8561585,14.9629999 L15.8561585,24 L18.0520416,24 L18.0520416,11.6846359 L4.87674278,11.6846359 Z" id="Path" fill-rule="nonzero"></path>
            <path d="M22.9754169,3.85962201 L22.9754169,3.85962201 C22.7234404,1.65961021 20.8741786,-0.000916127847 18.6739934,0.000321224121 L4.60755811,0.000321224121 C2.9764711,-0.0188577314 1.45477878,0.821922931 0.59437117,2.21703728 C-1.02995549,4.94416101 0.907805372,7.89524546 3.59657916,7.89524546 L3.98376259,7.89524546 C4.62845372,7.89524546 5.24180144,7.61189186 5.66278659,7.11942577 C6.15198978,6.56014268 6.37385202,5.81340077 6.26998853,5.07532032 C6.16796877,4.4164304 5.66585947,3.71732654 4.93758589,3.71732654 C4.23389537,3.71732654 3.77910849,4.13740753 3.77910849,4.78763599 C3.77849392,4.97200143 3.88420114,5.14089998 4.04952231,5.22070918 C4.28859272,5.32340939 4.39983113,5.60181358 4.29719679,5.84247854 C4.28244695,5.87774307 4.26278049,5.91115158 4.24004114,5.94208538 C4.09008439,6.12706949 3.83011837,6.1784196 3.62239139,6.06334587 C3.14240686,5.82082488 2.83880589,5.32650277 2.83819131,4.78639864 C2.82651435,3.68206201 3.70658842,2.77755772 4.80299355,2.76580287 C4.84785766,2.7651842 4.89272178,2.76642155 4.93758589,2.76889625 C6.03583475,2.76889625 7.00809535,3.69752891 7.19984333,4.92807544 C7.42600762,6.60221265 6.4568199,8.20643948 4.87674278,8.77500271 L4.87674278,10.4212995 L18.0520416,10.4212995 L18.0520416,8.75273037 C16.511912,8.1569454 15.5802135,6.57499091 15.7996174,4.92931279 C15.9913654,3.69752891 16.963626,2.76951493 18.0618749,2.76951493 C19.1570509,2.70517263 20.0967389,3.54719064 20.1606549,4.64905257 C20.1631132,4.69483459 20.1643423,4.74061661 20.1637278,4.78701731 C20.1624986,5.32712145 19.8595122,5.82144356 19.3795277,6.06396454 C19.1711861,6.17903828 18.9106055,6.12768817 18.7606488,5.9414667 C18.6039317,5.73297289 18.6444937,5.43600842 18.8516061,5.27824604 C18.882335,5.25473636 18.9155221,5.23493873 18.9511676,5.2200905 C19.1164888,5.1402813 19.2215814,4.97138276 19.2215814,4.78701731 C19.2215814,4.13678885 18.76618,3.71670786 18.0612603,3.71670786 C17.3323721,3.71670786 16.8308774,4.4164304 16.7288577,5.07470165 C16.6360565,5.71441261 16.7915445,6.36525975 17.1627489,6.89237169 C17.2168317,6.97094354 17.2746019,7.04642201 17.3366742,7.1188071 L17.3458928,7.12994327 C17.7877736,7.6261214 18.4214023,7.90514427 19.0833016,7.89524546 L19.4034962,7.89524546 C21.3898086,7.89710149 23,6.27926379 23,4.28155903 C23,4.14050091 22.9938542,3.99944279 22.9754169,3.85962201 Z" id="Path" fill-rule="nonzero"></path>
        </g>
    </g>
</svg>