<svg
   width="733px"
   height="498px"
   viewBox="0 0 863 586"
   version="1.1"
   id="svg63"
   inkscape:version="1.4 (e7c3feb1, 2024-10-09)"
   xmlns:inkscape="http://www.inkscape.org/namespaces/inkscape"
   xmlns:sodipodi="http://sodipodi.sourceforge.net/DTD/sodipodi-0.dtd"
   xmlns:xlink="http://www.w3.org/1999/xlink"
   xmlns="http://www.w3.org/2000/svg"
   xmlns:svg="http://www.w3.org/2000/svg"
   xmlns:rdf="http://www.w3.org/1999/02/22-rdf-syntax-ns#"
   xmlns:cc="http://creativecommons.org/ns#"
   xmlns:dc="http://purl.org/dc/elements/1.1/">
  <defs
     id="defs1">
    <path
       d="M0,0 L863,0 L863,586 L0,586 L0,0 Z"
       id="path-1" />
    <path
       d="M0,0 L242,0 L242,72 L0,72 L0,0 Z"
       id="path-2" />
    <path
       d="M0,0 L289,0 L289,90 L0,90 L0,0 Z"
       id="path-3" />
    <path
       d="M0,0 L217,0 L217,72 L0,72 L0,0 Z"
       id="path-4" />
    <path
       d="M0,0 L294,0 L294,72 L0,72 L0,0 Z"
       id="path-5" />
    <path
       d="M0,0 L234,0 L234,108 L0,108 L0,0 Z"
       id="path-6" />
    <style type="text/css">
      @import url('https://fonts.googleapis.com/css2?family=Figtree:wght@600');/* */
      text {
        font-family: 'Figtree', sans-serif;
      }
    </style>       
  </defs>
  <g
     id="Frame"
     stroke="none"
     fill="none"
     xlink:href="#path-1">
    <use
       fill="#FFFFFF"
       fill-rule="evenodd"
       xlink:href="#path-1"
       id="use1" />
    <g
       id="Pentagon"
       stroke-width="1"
       fill-rule="evenodd"
       transform="translate(173, 10)"
       onmouseover="document.getElementById('path24').style.opacity=1">
      <polygon
         id="Polygon"
         fill="#FFFFFF"
         points="270 0 526.785259 186.565412 428.702018 488.434588 111.297982 488.434588 13.2147406 186.565412" />
      <path
         d="M345.333898,378.573705 L420.30303,482 L117.818182,482 L194.172228,378.573705 L345.333898,378.573705 Z M518,190.525896 L424.186786,480.119522 L348.909091,376.197968 L395.941122,231.014003 L518,190.525896 Z M22,192.406375 L144.128405,232.21596 L191.090909,377.211529 L115.185813,480.119522 L22,192.406375 Z M271.878788,10 L516.121212,187.896869 L394.75267,228.135458 L271.878788,138.639537 L271.878788,10 Z M268.121212,10 L268.121212,139.135812 L145.21993,228.135458 L22,188.229749 L268.121212,10 Z"
         id="Shape-Copy"
         fill="#295E7F" />
      <text
         id="Linkage-Governance-Framework"
         font-family="Figtree-Bold, Figtree"
         font-size="32"
         font-weight="bold"
         line-spacing="36"
         fill="#000000"><tspan
           x="207.2"
           y="231.631836"
           id="tspan1">Linkage </tspan><tspan
           x="175.568"
           y="267.631836"
           id="tspan2">Governance </tspan><tspan
           x="181.44"
           y="303.631836"
           id="tspan3">Framework</tspan></text>
      <g
         id="Process-Icon"
         transform="translate(361, 108)"
         fill="#FFFFFF"
         fill-rule="nonzero">
        <path
           d="M17.9612005,31.7151045 C10.7566747,30.5193365 5.48059099,24.230607 5.50563569,16.8707388 C5.51398392,15.9595972 5.60581449,15.0509819 5.7811274,14.15584 L5.82286857,14.15584 L6.87474603,15.9907545 C7.19197892,16.545692 7.89323055,16.7360043 8.44421398,16.4168522 C8.99519741,16.0968579 9.18720679,15.387818 8.86997391,14.8328805 L6.43228964,10.5777988 C6.2736732,10.3133825 6.03157442,10.1197018 5.73938624,10.0397032 C5.43884982,9.95970465 5.12996517,10.0018092 4.86282169,10.1550696 L0.615240333,12.6274463 C0.0542390221,12.9238621 -0.162815056,13.623639 0.131042773,14.1903657 C0.424065779,14.7570924 1.11780401,14.9760359 1.67964014,14.6796201 C1.70802414,14.6644625 1.73640813,14.6484628 1.7639573,14.6307789 L3.51959087,13.6059551 C3.31589397,14.6821464 3.21154104,15.7751794 3.2098714,16.8707388 C3.18399187,25.3556395 9.2623409,32.6077201 17.5604853,33.9963268 L17.7524947,33.9963268 C18.3869604,34.0468522 18.9462921,33.5702292 18.9963815,32.9310827 C19.0464709,32.2910942 18.5706216,31.7311042 17.9361558,31.6805788 L17.9612005,31.7151045 Z"
           id="Path" />
        <path
           d="M36.9998171,16.9640371 C36.9998171,14.8506312 36.6337352,12.7527145 35.9015714,10.7701058 C35.6802196,10.1574246 35.0076505,9.84678146 34.3946762,10.0748159 C33.7902153,10.3037108 33.4837282,10.9860931 33.7135936,11.5987743 C36.6422488,19.5601875 32.6323749,28.4156678 24.7573573,31.3783943 C24.6977625,31.399907 24.6381678,31.4205592 24.5870866,31.4412113 L24.5870866,31.4412113 L25.6512782,29.5592819 C25.9747924,28.9913471 25.7789812,28.265079 25.217088,27.9380863 C24.6551949,27.611954 23.9400581,27.8081497 23.6165439,28.3760844 L21.156133,32.7362748 C20.8326188,33.3033491 21.02843,34.0261752 21.5903232,34.3514469 C21.5903232,34.3514469 21.5903232,34.3514469 21.5903232,34.3514469 L25.9066842,36.8417549 C26.4685773,37.1687477 27.1837141,36.9725521 27.5072283,36.4046173 C27.8307425,35.835822 27.6349313,35.1104143 27.0730381,34.7834216 L25.2426286,33.7361842 C32.3088607,31.2596443 37.0338713,24.5192909 36.9998171,16.9640371 Z"
           id="path3" />
        <path
           d="M27.9629492,6.42643426 C27.3265887,6.42643426 26.8158258,7.00150663 26.8158258,7.71216517 C26.8158258,8.42188863 27.3265887,8.99789608 27.9629492,8.99789608 L32.6937865,8.99789608 C32.7440255,9.00070131 32.7858913,9.00070131 32.8277571,8.99789608 C33.0538325,8.99789608 33.2715348,8.92402499 33.4473712,8.78563359 L33.5311028,8.72765882 L33.5645955,8.6958662 L33.639954,8.63134588 C33.8660294,8.39103109 33.9916268,8.06001382 34,7.71216517 L34,2.26066613 C34,1.55000759 33.4808639,0.974935219 32.8445034,0.974935219 C32.208143,0.974935219 31.6973801,1.55000759 31.6973801,2.26066613 L31.6973801,4.60677438 C24.4378474,-2.30157467 13.5359886,-1.32909457 7.34822078,6.77802322 C7.32310129,6.81262107 7.2979818,6.84721892 7.27286231,6.88275185 C6.8625773,7.4260316 6.92118944,8.23767846 7.40683292,8.6958662 C7.8924764,9.15311886 8.62094162,9.08485824 9.03122663,8.54157849 C14.3146928,1.5088642 23.6926358,0.556020712 30.0311205,6.40679765 L27.9629492,6.42643426 Z"
           id="path4" />
      </g>
      <g
         id="Improvement-Icon"
         transform="translate(99, 275)"
         fill="#FFFFFF"
         fill-rule="nonzero">
        <polygon
           id="polygon4"
           points="12.4413856 24.8827711 22.1172289 24.8827711 22.1172289 47 12.4413856 47" />
        <polygon
           id="polygon5"
           points="24.8827711 12.4413856 34.5586144 12.4413856 34.5586144 47 24.8827711 47" />
        <polygon
           id="polygon6"
           points="37.3241567 0 47 0 47 47 37.3241567 47" />
        <polygon
           id="polygon7"
           points="0 37.3241567 9.67584329 37.3241567 9.67584329 47 0 47" />
      </g>
      <g
         id="Principles-Icon"
         transform="translate(140, 108)"
         fill="#FFFFFF"
         fill-rule="nonzero">
        <path
           d="M8.90535638,20.9349726 L8.90535638,43 L12.9152299,43 L12.9152299,26.8087082 C12.9152299,26.1835361 13.4281077,25.6769693 14.0610684,25.6769693 C14.6940292,25.6769693 15.2069069,26.1835361 15.2069069,26.8087082 L15.2069069,43 L19.7891386,43 L19.7891386,26.8087082 C19.7891386,26.1835361 20.3020164,25.6769693 20.9349771,25.6769693 C21.5679378,25.6769693 22.0808156,26.1835361 22.0808156,26.8087082 L22.0808156,43 L26.6630472,43 L26.6630472,26.8087082 C26.6630472,26.1835361 27.175925,25.6769693 27.8088857,25.6769693 C28.4418465,25.6769693 28.9547242,26.1835361 28.9547242,26.8087082 L28.9547242,43 L32.9645978,43 L32.9645978,20.9349726 L8.90535638,20.9349726 Z"
           id="path7" />
        <path
           d="M41.9551092,6.91515611 L41.9551092,6.91515611 C41.4949781,2.9734683 38.1180653,-0.00164139573 34.1003358,0.00057552655 L8.41380176,0.00057552655 C5.43529506,-0.0337867687 2.65655256,1.47261192 1.08537344,3.97219178 C-1.88078828,8.85828848 1.65773155,14.1456481 6.5676663,14.1456481 L7.2746969,14.1456481 C8.45195897,14.1456481 9.57198523,13.6379729 10.3407407,12.7556378 C11.2340683,11.753589 11.639208,10.4156764 11.4495443,9.09328224 C11.2632473,7.91277113 10.3463521,6.66021004 9.01646118,6.66021004 C7.73146112,6.66021004 6.90098073,7.41285516 6.90098073,8.57784781 C6.89985846,8.90816923 7.09288903,9.21077912 7.39477988,9.35377061 C7.83134322,9.53777516 8.03447423,10.0365827 7.84705501,10.4677741 C7.82012051,10.5309563 7.78420785,10.5908132 7.74268383,10.6462363 C7.46884975,10.9776662 6.9941292,11.0696685 6.61480167,10.8634947 C5.73830818,10.4289779 5.1839064,9.54331747 5.18278413,8.57563089 C5.16146099,6.59702776 6.76855277,4.97645758 8.77068388,4.95539681 C8.85260965,4.95428835 8.93453542,4.95650528 9.01646118,4.96093912 C11.0219591,4.96093912 12.7973915,6.62473929 13.14754,8.82946849 C13.5605357,11.8289643 11.7907146,14.7032041 8.90535638,15.7218798 L8.90535638,18.6714949 L32.9645978,18.6714949 L32.9645978,15.6819752 C30.1521872,14.6145272 28.4508246,11.780192 28.8514753,8.83168541 C29.2016238,6.62473929 30.9770562,4.96204758 32.9825541,4.96204758 C34.9824407,4.84676762 36.6983927,6.35538323 36.8151089,8.32955252 C36.819598,8.41157864 36.8218425,8.49360477 36.8207203,8.57673935 C36.8184757,9.54442593 36.2651962,10.4300864 35.3887027,10.8646031 C35.0082529,11.0707769 34.5324101,10.9787746 34.258576,10.6451278 C33.972397,10.2715764 34.0464668,9.73951509 34.4246721,9.4568575 C34.4807856,9.41473597 34.5413883,9.37926522 34.60648,9.35266215 C34.9083708,9.20967066 35.1002791,8.90706077 35.1002791,8.57673935 C35.1002791,7.4117467 34.2686765,6.65910158 32.9814319,6.65910158 C31.6504187,6.65910158 30.7346457,7.91277113 30.5483488,9.09217378 C30.3788859,10.2383226 30.6628204,11.4044237 31.3406719,12.3488326 C31.4394318,12.4896072 31.5449252,12.6248394 31.6582746,12.7545294 L31.6751086,12.7744817 C32.4820213,13.6634675 33.6390825,14.1633835 34.8477682,14.1456481 L35.4324713,14.1456481 C39.0596505,14.1489735 42,11.2503476 42,7.6711266 C42,7.41839746 41.9887773,7.16566832 41.9551092,6.91515611 Z"
           id="path8" />
      </g>
      <text
         id="Guiding-Principles"
         font-family="Figtree-Bold, Figtree"
         font-size="15"
         font-weight="normal"
         line-spacing="16.5"
         fill="#FFFFFF"><tspan
           x="129.3225"
           y="168.264923"
           id="tspan8">Guiding </tspan><tspan
           x="122.6775"
           y="184.764923"
           id="tspan9">Principles</tspan></text>
      <text
         id="Governance-Decisions"
         font-family="Figtree-Bold, Figtree"
         font-size="15"
         font-weight="normal"
         line-spacing="16.5"
         fill="#FFFFFF"><tspan
           x="369.735"
           y="344.264923"
           id="tspan10">Governance </tspan><tspan
           x="378.2775"
           y="360.764923"
           id="tspan11">Decisions</tspan></text>
      <text
         id="Continuous-Improvement"
         font-family="Figtree-Bold, Figtree"
         font-size="15"
         font-weight="normal"
         line-spacing="16.5"
         fill="#FFFFFF"><tspan
           x="84.6475"
           y="344.264923"
           id="tspan12">Continuous </tspan><tspan
           x="77.89"
           y="360.764923"
           id="tspan13">Improvement</tspan></text>
      <text
         id="Governance-Process"
         font-family="Figtree-Bold, Figtree"
         font-size="15"
         font-weight="normal"
         line-spacing="16.5"
         fill="#FFFFFF"><tspan
           x="347.8225"
           y="160.264923"
           id="tspan14">Common </tspan><tspan
           x="337.735"
           y="176.764923"
           id="tspan15">Governance </tspan><tspan
           x="352.375"
           y="193.264923"
           id="tspan16">Process</tspan></text>
      <text
         id="Roles-and-Responsibilities"
         font-family="Figtree-Bold, Figtree"
         font-size="15"
         font-weight="normal"
         line-spacing="16.5"
         fill="#FFFFFF"><tspan
           x="182.8875"
           y="466.264923"
           id="tspan17">Roles and Responsibilities</tspan></text>
      <g
         id="Roles-Icon"
         transform="translate(234, 397)"
         fill="#FFFFFF"
         fill-rule="nonzero">
        <polygon
           id="polygon17"
           points="26.1363636 0 43.3863636 0 43.3863636 10.4651163 26.1363636 10.4651163" />
        <polygon
           id="polygon18"
           points="0 34.5348837 17.25 34.5348837 17.25 45 0 45" />
        <polygon
           id="polygon19"
           points="26.1363636 34.5348837 43.3863636 34.5348837 43.3863636 45 26.1363636 45" />
        <polygon
           id="polygon20"
           points="51.75 34.5348837 69 34.5348837 69 45 51.75 45" />
        <polygon
           id="polygon21"
           points="36.2315341 20.755814 36.2315341 12.0348837 32.7684659 12.0348837 32.7684659 20.755814 6.79545455 20.755814 6.79545455 32.9651163 10.2585227 32.9651163 10.2585227 24.244186 32.7684659 24.244186 32.7684659 32.9651163 36.2315341 32.9651163 36.2315341 24.244186 58.7414773 24.244186 58.7414773 32.9651163 62.2045455 32.9651163 62.2045455 20.755814" />
      </g>
      <g
         id="Gavel-Icon"
         transform="translate(388, 274)"
         fill="#FFFFFF"
         fill-rule="nonzero">
        <path
           d="M23.7682965,47.7 L22.4478356,47.7 L22.4478356,45.05 L3.96138275,45.05 L3.96138275,47.7 L2.64092183,47.7 C1.18841482,47.7 0,48.8925 0,50.35 C0,51.8075 1.18841482,53 2.64092183,53 L23.7682965,53 C25.2208035,53 26.4092183,51.8075 26.4092183,50.35 C26.4092183,48.8925 25.2208035,47.7 23.7682965,47.7 Z"
           id="path21" />
        <path
           d="M23.7022734,34.51625 C24.49455,33.72125 24.49455,32.4625 23.7022734,31.73375 L13.2706322,21.26625 C12.4783557,20.47125 11.2239178,20.47125 10.4976643,21.26625 L7.92276549,23.85 L21.1273746,37.1 L23.7022734,34.51625 Z"
           id="path22" />
        <path
           d="M39.5478044,15.83375 C40.340081,16.62875 41.5945188,16.62875 42.3207723,15.83375 L44.8956711,13.25 L31.691062,0 L29.1161632,2.58375 C28.3238866,3.37875 28.3238866,4.6375 29.1161632,5.36625 L39.5478044,15.83375 Z"
           id="path23" />
        <path
           d="M52.1582062,39.0875 L34.3319838,21.2 L38.2933666,17.225 L27.7296792,6.625 L14.5250701,19.875 L25.0887574,30.475 L30.3706011,25.175 L48.1968234,43.0625 C49.3192152,44.18875 51.0358144,44.18875 52.1582062,43.0625 C53.2805979,41.93625 53.2805979,40.21375 52.1582062,39.0875 Z"
           id="path24" />
      </g>
    </g>
    <polygon
       id="polygon24"
       fill-opacity="0"
       fill="#E1F3FF"
       fill-rule="evenodd"
       points="518.151035 388 593 491 291 491 367.23166 388"
       onmouseover="document.getElementById('Roles').style.opacity=1"
       onmouseout="document.getElementById('Roles').style.opacity=0" />
    <polygon
       id="polygon25"
       fill-opacity="0"
       fill="#E1F3FF"
       fill-rule="evenodd"
       points="691 199 597.237223 489 522 384.932617 569.006745 239.544922"
       onmouseover="document.getElementById('GovDec').style.opacity=1"
       onmouseout="document.getElementById('GovDec').style.opacity=0" />
    <polygon
       id="polygon26"
       fill-opacity="0"
       fill="#E1F3FF"
       fill-rule="evenodd"
       points="195 201 317.062745 240.849276 364 385.989407 288.135713 489"
       onmouseover="document.getElementById('Improvement').style.opacity=1"
       onmouseout="document.getElementById('Improvement').style.opacity=0" />
    <polygon
       id="polygon27"
       fill-opacity="0"
       fill="#E1F3FF"
       fill-rule="evenodd"
       points="445 19 689 196.786398 567.751923 237 445 147.559654"
       onmouseover="document.getElementById('CGP').style.opacity=1"
       onmouseout="document.getElementById('CGP').style.opacity=0" />
    <polygon
       id="polygon28"
       fill-opacity="0"
       fill="#e1f3ff"
       fill-rule="evenodd"
       points="195,197.11907 441,19 441,148.05562 318.15925,237 "
       style="display:inline"
       onmouseover="document.getElementById('Principles').style.opacity=1"
       onmouseout="document.getElementById('Principles').style.opacity=0" />
    <g
       id="Principles"
       transform="translate(56,39)"
       xlink:href="#path-2"
       fill="#000000"
       style="opacity:0;transition: opacity 0.5s ease-in-out;">
      <text
         id="Guiding-Principles-t"
         font-family="Helvetica-Bold, Helvetica"
         font-size="15px"
         font-weight="bold"><tspan
           x="40"
           y="15"
           id="tspan28">Guiding Principles</tspan><tspan
           x="176.68457"
           y="15"
           font-family="Helvetica"
           font-weight="normal"
           id="tspan29">that</tspan><tspan
           x="40"
           y="33"
           font-family="Helvetica"
           font-weight="normal"
           id="tspan30">describe the core values</tspan><tspan
           x="40"
           y="51"
           font-family="Helvetica"
           font-weight="normal"
           id="tspan31">underpinning the framework’s</tspan><tspan
           x="40"
           y="69"
           font-family="Helvetica"
           font-weight="normal"
           id="tspan32">purpose and objectives.</tspan></text>
      <g
         id="icon_column"
         transform="translate(0,3)"
         fill-rule="evenodd"
         stroke-width="1">
        <g
           id="Group-Copy-3">
          <path
             d="M 6.0959285,14.605795 V 30 H 8.8407824 V 18.70375 c 0,-0.436167 0.351077,-0.789585 0.7843537,-0.789585 0.4332769,0 0.7843539,0.353418 0.7843539,0.789585 V 30 h 3.136646 V 18.70375 c 0,-0.436167 0.351078,-0.789585 0.784354,-0.789585 0.433277,0 0.784354,0.353418 0.784354,0.789585 V 30 h 3.136647 V 18.70375 c 0,-0.436167 0.351077,-0.789585 0.784353,-0.789585 0.433277,0 0.784354,0.353418 0.784354,0.789585 V 30 h 2.744854 V 14.605795 Z"
             id="path32"
             fill-rule="nonzero" />
          <path
             d="m 28.719271,4.8245275 v 0 C 28.404301,2.0745128 26.092723,-0.00114516 23.342492,4.0153015e-4 H 5.7594476 C 3.7205889,-0.02357216 1.8184735,1.0274037 0.74296396,2.7712966 -1.2874444,6.1802013 1.1347567,9.8690568 4.495724,9.8690568 h 0.4839792 c 0.805864,0 1.5725486,-0.354192 2.09878,-0.9697746 C 7.6899872,8.2001784 7.967315,7.266751 7.8374857,6.3441504 7.709961,5.520538 7.0823243,4.6466582 6.1719824,4.6466582 c -0.8796132,0 -1.4480968,0.5251012 -1.4480968,1.3378868 -7.682e-4,0.2304568 0.1313658,0.44158 0.3380173,0.5413415 0.298838,0.1283752 0.437886,0.4763805 0.3095931,0.7772117 -0.018437,0.044081 -0.04302,0.085841 -0.071445,0.1245085 C 5.1126055,7.6588369 4.787648,7.7230245 4.5279892,7.5791823 3.9280086,7.2760311 3.5485074,6.6581285 3.5477391,5.9829983 3.5331429,4.6025775 4.6332355,3.4719472 6.0037419,3.4572536 c 0.05608,-7.734e-4 0.1121603,7.733e-4 0.1682405,0.00387 1.372811,0 2.5881368,1.1607908 2.8278218,2.698974 0.2827053,2.0926715 -0.9287793,4.0979547 -2.9038757,4.8086587 v 2.057871 H 22.565052 v -2.085711 c -1.925162,-0.744731 -3.089785,-2.7221744 -2.81553,-4.779272 0.239685,-1.5397299 1.45501,-2.6997473 2.827822,-2.6997473 1.36897,-0.080428 2.54358,0.9720946 2.623475,2.349422 0.0031,0.057228 0.0046,0.1144551 0.0038,0.1724559 -0.0015,0.6751302 -0.38027,1.2930328 -0.98025,1.5961841 -0.260427,0.1438422 -0.586153,0.079655 -0.773599,-0.1531223 -0.195896,-0.2606173 -0.145194,-0.6318229 0.113697,-0.8290259 0.03841,-0.029387 0.0799,-0.054134 0.124451,-0.072694 0.206652,-0.099762 0.338018,-0.3108847 0.338018,-0.5413415 0,-0.8127855 -0.569252,-1.3378868 -1.450402,-1.3378868 -0.91111,0 -1.537978,0.8746532 -1.665503,1.6974923 -0.116001,0.7996387 0.07836,1.6131976 0.542364,2.2720875 0.0676,0.098215 0.139816,0.1925629 0.217407,0.2830443 l 0.01152,0.01392 c 0.552351,0.6202227 1.344387,0.9690012 2.171761,0.9566277 h 0.400243 c 2.482891,0.00232 4.49563,-2.0199771 4.49563,-4.517108 0,-0.1763227 -0.0077,-0.3526453 -0.03073,-0.5274213 z"
             id="path33"
             fill-rule="nonzero" />
        </g>
      </g>
    </g>
    <g
       id="CGP"
       transform="translate(568,30)"
       xlink:href="#path-3"
       fill="#000000"
       style="opacity:0;transition: opacity 0.5s ease-in-out;">
      <text
         id="A-Common-Governance"
         font-family="Helvetica"
         font-size="15px"
         font-weight="normal"><tspan
           x="40"
           y="15"
           id="tspan33">A</tspan><tspan
           x="53.352051"
           y="15"
           font-family="Helvetica-Bold, Helvetica"
           font-weight="bold"
           id="tspan34">Common Governance Process</tspan><tspan
           x="40"
           y="33"
           font-family="Helvetica"
           font-weight="normal"           
           id="tspan36">that provides a consistent,</tspan><tspan
           x="40"
           y="51"
           font-family="Helvetica"
           font-weight="normal"           
           id="tspan37">transparent process to intake,</tspan><tspan
           x="40"
           y="69"
           font-family="Helvetica"
           font-weight="normal"           
           id="tspan38">screen, and harmonize requests to</tspan><tspan
           x="40"
           y="87"
           font-family="Helvetica"
           font-weight="normal"           
           id="tspan39">access and link multiple datasets.</tspan></text>
      <g
         id="icon_process"
         transform="translate(0,3)"
         fill-rule="evenodd"
         stroke-width="1">
        <g
           id="Icon-Process">
          <path
             d="M 14.179895,25.824845 C 8.4921116,24.847535 4.3267824,19.707708 4.3465545,13.692431 c 0.00659,-0.744683 0.079089,-1.487302 0.2174934,-2.218908 h 0.032954 l 0.8304296,1.49969 c 0.250447,0.453555 0.8040667,0.609098 1.2390536,0.348253 C 7.1014716,13.059932 7.253058,12.480428 7.002611,12.026874 L 5.0781234,8.5491625 C 4.9528999,8.333053 4.7617693,8.1747563 4.5310944,8.1093728 4.2938288,8.0439894 4.0499725,8.0784017 3.8390698,8.2036626 L 0.48571605,10.224355 c -0.44289577,0.242263 -0.61425425,0.814196 -0.38226123,1.277386 0.23133395,0.46319 0.77902203,0.642135 1.22257688,0.399872 0.022408,-0.01239 0.044817,-0.02546 0.066566,-0.03992 L 2.7786244,11.024098 C 2.617811,11.903677 2.5354271,12.797022 2.534109,13.692431 2.5136778,20.627205 7.3123744,26.554387 13.863541,27.689306 h 0.151586 c 0.500894,0.04129 0.942472,-0.348253 0.982016,-0.870633 0.03954,-0.523067 -0.336126,-0.980751 -0.83702,-1.022046 z"
             id="path39"
             fill-rule="nonzero" />
          <path
             d="m 29.999855,13.731483 c 0,-1.716013 -0.290402,-3.41945 -0.871205,-5.0292604 -0.175591,-0.4974761 -0.70912,-0.7497077 -1.195373,-0.5645516 -0.4795,0.1858549 -0.722627,0.7399259 -0.540282,1.2374021 2.323212,6.4643959 -0.857698,13.6547429 -7.104707,16.0603749 -0.04728,0.01747 -0.09455,0.03424 -0.13507,0.05101 v 0 l 0.84419,-1.528063 c 0.256634,-0.461143 0.101303,-1.050848 -0.34443,-1.316355 -0.445732,-0.264808 -1.013028,-0.105504 -1.269662,0.355639 l -1.951768,3.540326 c -0.256634,0.460445 -0.101303,1.047355 0.344429,1.311464 0,0 0,0 0,0 l 3.424037,2.022045 c 0.445732,0.265507 1.013028,0.106203 1.269662,-0.35494 0.256634,-0.461843 0.101303,-1.050849 -0.344429,-1.316356 l -1.452008,-0.850321 c 5.605424,-2.010866 9.35363,-7.483802 9.326616,-13.61841 z"
             id="path40"
             fill-rule="nonzero" />
          <path
             d="m 22.790429,4.943411 c -0.516703,0 -0.931425,0.4423633 -0.931425,0.9890237 0,0.5459412 0.414722,0.9890238 0.931425,0.9890238 h 3.841278 c 0.04079,0.00216 0.07479,0.00216 0.108779,0 0.183566,0 0.360333,-0.056824 0.503106,-0.1632788 l 0.06799,-0.044596 0.0272,-0.024456 0.06119,-0.049631 C 27.583528,6.4546393 27.685509,6.2000106 27.692308,5.9324347 V 1.7389739 c 0,-0.5466604 -0.421521,-0.98902373 -0.938224,-0.98902373 -0.516703,0 -0.931425,0.44236333 -0.931425,0.98902373 V 3.5436726 C 19.928167,-1.770442 11.07623,-1.0223804 6.0519741,5.213864 6.031578,5.2404777 6.0111818,5.2670915 5.9907856,5.2944245 5.6576482,5.712332 5.7052393,6.3366757 6.0995652,6.6891278 6.4938911,7.0408607 7.0853799,6.9883525 7.4185173,6.570445 11.708511,1.1606648 19.32308,0.42770824 24.469713,4.9283059 Z"
             id="path41"
             fill-rule="nonzero" />
        </g>
      </g>
    </g>
    <g
       id="GovDec"
       transform="translate(646,363)"
       xlink:href="#path-4"
       fill="#000000"
       style="opacity:0;transition: opacity 0.5s ease-in-out;">
      <text
         id="text45"
         font-family="Helvetica-Bold, Helvetica"
         font-size="15px"
         font-weight="bold"><tspan
           x="40"
           y="15"
           id="tspan41">Governance Decisions</tspan><tspan
           x="201.7334"
           y="15"
           font-family="Helvetica"
           font-weight="normal"
           id="tspan42" /><tspan
           x="40"
           y="33"
           font-family="Helvetica"
           font-weight="normal"
           id="tspan43">that are made within the</tspan><tspan
           x="40"
           y="51"
           font-family="Helvetica"
           font-weight="normal"
           id="tspan44">process to achieve the</tspan><tspan
           x="40"
           y="69"
           font-family="Helvetica"
           font-weight="normal"
           id="tspan45">framework’s objectives.</tspan></text>
      <g
         id="icon_gavel"
         transform="translate(0,3)"
         fill-rule="evenodd"
         stroke-width="1">
        <g
           id="Icon-Gavel">
          <path
             d="M 13.453753,27 H 12.706322 V 25.5 H 2.2422921 V 27 H 1.4948614 C 0.67268764,27 0,27.675 0,28.5 0,29.325 0.67268764,30 1.4948614,30 H 13.453753 c 0.822174,0 1.494861,-0.675 1.494861,-1.5 0,-0.825 -0.672687,-1.5 -1.494861,-1.5 z"
             id="path45"
             fill-rule="nonzero" />
          <path
             d="m 13.416381,19.5375 c 0.448459,-0.45 0.448459,-1.1625 0,-1.575 l -5.9047024,-5.925 c -0.4484584,-0.45 -1.1585176,-0.45 -1.5696045,0 L 4.4845842,13.5 11.958891,21 Z"
             id="path46"
             fill-rule="nonzero" />
          <path
             d="m 22.38555,8.9625 c 0.448458,0.45 1.158517,0.45 1.569604,0 L 25.412644,7.5 17.938337,0 16.480847,1.4625 c -0.448458,0.45 -0.448458,1.1625 0,1.575 z"
             id="path47"
             fill-rule="nonzero" />
          <path
             d="M 29.523513,22.125 19.433198,12 21.67549,9.75 l -5.979445,-6 -7.4743072,7.5 5.9794452,6 2.989723,-3 10.090315,10.125 c 0.635316,0.6375 1.606976,0.6375 2.242292,0 0.635316,-0.6375 0.635316,-1.6125 0,-2.25 z"
             id="path48"
             fill-rule="nonzero" />
        </g>
      </g>
    </g>
    <g
       id="Roles"
       transform="translate(298,514)"
       xlink:href="#path-5"
       fill="#000000"
       style="opacity:0;transition: opacity 0.5s ease-in-out;">
      <text
         id="Roles-and-Responsibi"
         font-family="Helvetica-Bold, Helvetica"
         font-size="15px"
         font-weight="bold"><tspan
           x="45"
           y="15"
           id="tspan48">Roles and Responsibilities</tspan><tspan
           x="226"
           y="15"
           font-family="Helvetica"
           font-weight="normal"
           id="tspan49">defining</tspan><tspan
           x="45"
           y="33"
           font-family="Helvetica"
           font-weight="normal"
           id="tspan50">the functions and duties of entities</tspan><tspan
           x="45"
           y="51"
           font-family="Helvetica"
           font-weight="normal"
           id="tspan51">involved in the governance process.</tspan></text>
      <g
         id="icon_roles"
         transform="translate(0,3)"
         fill-rule="evenodd"
         stroke-width="1">
        <g
           id="Icon-Roles">
          <polygon
             id="polygon51"
             fill-rule="nonzero"
             points="25.067677,0 25.067677,6.0465116 15.10101,6.0465116 15.10101,0 " />
          <polygon
             id="polygon52"
             fill-rule="nonzero"
             points="9.9666667,19.953488 9.9666667,26 0,26 0,19.953488 " />
          <polygon
             id="polygon53"
             fill-rule="nonzero"
             points="25.067677,19.953488 25.067677,26 15.10101,26 15.10101,19.953488 " />
          <polygon
             id="polygon54"
             fill-rule="nonzero"
             points="39.866667,19.953488 39.866667,26 29.9,26 29.9,19.953488 " />
          <polygon
             id="polygon55"
             fill-rule="nonzero"
             points="20.933775,6.9534884 18.932892,6.9534884 18.932892,11.992248 3.9262626,11.992248 3.9262626,19.046512 5.9271465,19.046512 5.9271465,14.007752 18.932892,14.007752 18.932892,19.046512 20.933775,19.046512 20.933775,14.007752 33.93952,14.007752 33.93952,19.046512 35.940404,19.046512 35.940404,11.992248 20.933775,11.992248 " />
        </g>
      </g>
    </g>
    <g
       id="Improvement"
       transform="translate(4,363)"
       xlink:href="#path-6"
       fill="#000000"
       style="opacity:0;transition: opacity 0.5s ease-in-out;">
      <text
         id="Continuous-Improveme"
         font-family="Helvetica-Bold, Helvetica"
         font-size="15px"
         font-weight="bold"><tspan
           x="40"
           y="15"
           id="tspan55">Continuous Improvement</tspan><tspan
           x="40"
           y="33"
           font-family="Helvetica"
           font-weight="normal"
           id="tspan56">to increase governance</tspan><tspan
           x="40"
           y="51"
           font-family="Helvetica"
           font-weight="normal"
           id="tspan57">effectiveness through</tspan><tspan
           x="40"
           y="69"
           font-family="Helvetica"
           font-weight="normal"
           id="tspan58">structured feedback to refine</tspan><tspan
           x="40"
           y="87"
           font-family="Helvetica"
           font-weight="normal"
           id="tspan59">and enhance the framework</tspan><tspan
           x="40"
           y="105"
           font-family="Helvetica"
           font-weight="normal"
           id="tspan60">over time.</tspan></text>
      <g
         id="icon_improvement"
         transform="translate(0,3)"
         fill-rule="evenodd"
         stroke-width="1">
        <g
           id="Icon-Improvement"
           transform="translate(0.992)">
          <polygon
             id="polygon60"
             fill-rule="nonzero"
             points="14.004441,15.88262 14.004441,30 7.8777795,30 7.8777795,15.88262 " />
          <polygon
             id="polygon61"
             fill-rule="nonzero"
             points="21.88222,7.9413099 21.88222,30 15.755559,30 15.755559,7.9413099 " />
          <polygon
             id="polygon62"
             fill-rule="nonzero"
             points="29.76,0 29.76,30 23.633338,30 23.633338,0 " />
          <polygon
             id="polygon63"
             fill-rule="nonzero"
             points="6.1266616,23.82393 6.1266616,30 0,30 0,23.82393 " />
        </g>
      </g>
    </g>
  </g>
  <metadata
     id="metadata63">
    <rdf:RDF>
      <cc:Work
         rdf:about="">
        <dc:title>Frame</dc:title>
      </cc:Work>
    </rdf:RDF>
  </metadata>
</svg>
